<svg width="512" height="516" xmlns="http://www.w3.org/2000/svg">
 <defs>
  <linearGradient id="imagebot_68" y2="1">
   <stop offset="0" stop-color="#e92d28"/>
   <stop offset="1" stop-color="#6d0018"/>
  </linearGradient>
  <linearGradient id="imagebot_69" y2="1">
   <stop offset="0" stop-color="#ff7f00"/>
   <stop offset="1" stop-color="#ff0000"/>
  </linearGradient>
  <linearGradient id="imagebot_70" y2="1">
   <stop offset="0" stop-color="#e470e6"/>
   <stop offset="1" stop-color="#a849a3"/>
  </linearGradient>
 </defs>
 <g>
  <title>Layer 1</title>
  <path transform="matrix(1 0 0 1 -4.6875 6.0065)" stroke-opacity="0" id="imagebot_3" fill="#344A5E" d="M141.867,476.623L129.067,463.823L186.667,406.223L186.667,279.289L205.867,279.289L205.867,408.356C205.867,410.489 204.8,413.689 202.667,414.756L141.867,476.623z"/>
  <circle transform="matrix(1 0 0 1 -4.6875 6.0065)" stroke-opacity="0" id="imagebot_4" fill="#3f007f" r="42.667" cy="469.156" cx="135.467"/>
  <path transform="matrix(1 0 0 1 -4.6875 6.0065)" stroke-opacity="0" id="imagebot_5" fill="#344A5E" d="M125.867,405.156L42.667,405.156L42.667,385.956L117.334,385.956L117.334,288.889L136.534,288.889L136.534,394.489C135.467,400.889 131.2,405.156 125.867,405.156z"/>
  <circle transform="matrix(1 0 0 1 -4.6875 6.0065)" stroke-opacity="0" id="imagebot_6" fill="url(#imagebot_70)" r="42.667" cy="395.556" cx="42.667"/>
  <path transform="matrix(1 0 0 1 -4.6875 6.0065)" stroke-opacity="0" id="imagebot_7" fill="#344A5E" d="M370.133,476.623L309.333,415.823C307.2,413.69 306.133,411.556 306.133,409.423L306.133,279.289L325.333,279.289L325.333,405.156L382.933,462.756L370.133,476.623z"/>
  <circle transform="matrix(1 0 0 1 -4.6875 6.0065)" stroke-opacity="0" id="imagebot_8" fill="url(#imagebot_68)" r="42.667" cy="469.156" cx="376.533"/>
  <rect transform="matrix(1 0 0 1 -4.6875 6.0065)" stroke-opacity="0" id="imagebot_9" fill="#344A5E" height="189.867" width="19.2" y="279.289" x="246.4"/>
  <circle transform="matrix(1 0 0 1 -4.6875 6.0065)" stroke-opacity="0" id="imagebot_10" fill="#007f3f" r="42.667" cy="469.156" cx="256"/>
  <path transform="matrix(1 0 0 1 -4.6875 6.0065)" stroke-opacity="0" id="imagebot_11" fill="#344A5E" d="M469.333,405.156L385.066,405.156C379.733,405.156 375.466,400.889 375.466,395.556L375.466,289.956L394.666,289.956L394.666,387.023L469.333,387.023L469.333,405.156L469.333,405.156z"/>
  <circle transform="matrix(1 0 0 1 -4.6875 6.0065)" stroke-opacity="0" id="imagebot_12" fill="url(#imagebot_69)" class="active-path" r="42.667" cy="395.556" cx="469.333"/>
  <path transform="matrix(1 0 0 1 -4.6875 6.0065)" stroke-opacity="0" id="imagebot_14" fill="#FFD15C" d="M171.733,160.889C169.6,169.422 164.266,176.889 160,175.822C155.733,174.755 152.533,167.289 154.667,157.689C156.8,149.156 162.134,141.689 166.4,142.756C171.733,143.823 173.867,152.356 171.733,160.889z"/>
  <path transform="matrix(1 0 0 1 -4.6875 6.0065)" stroke-opacity="0" id="imagebot_15" fill="#FFD15C" d="M73.6,160.889C75.733,169.422 81.067,176.889 85.333,175.822C89.6,174.755 92.8,167.289 90.666,157.689C88.533,149.156 83.199,141.689 78.933,142.756C74.667,143.823 71.467,152.356 73.6,160.889z"/>
  <ellipse transform="matrix(1 0 0 1 -4.6875 6.0065)" stroke-opacity="0" id="imagebot_17" fill="#415A6B" ry="46.933" rx="46.933" cy="131.023" cx="121.6"/>
  <path transform="matrix(1 0 0 1 -4.6875 6.0065)" stroke-opacity="0" id="imagebot_18" fill="#415A6B" d="M168.533,138.489C165.333,164.089 153.6,185.422 141.866,185.422S123.733,164.089 126.933,138.489S141.866,91.556 153.6,91.556S171.733,112.889 168.533,138.489z"/>
  <path transform="matrix(1 0 0 1 -4.6875 6.0065)" stroke-opacity="0" id="imagebot_19" fill="#344A5E" d="M245.333,301.689L236.8,262.222C233.6,248.355 224,236.622 210.133,232.355L160,216.355L122.667,231.288L85.334,216.355L35.201,232.355C21.334,236.622 11.734,248.355 8.534,262.222L0,301.689L245.333,301.689z"/>
  <polygon transform="matrix(1 0 0 1 -4.6875 6.0065)" stroke-opacity="0" id="imagebot_20" fill="#E8EAE9" points="136.533,301.689 152.533,236.623 88.533,236.623 107.733,301.689 "/>
  <polygon transform="matrix(1 0 0 1 -4.6875 6.0065)" stroke-opacity="0" id="imagebot_21" fill="#F3705A" points="101.333,301.689 144,301.689 130.133,257.956 137.6,245.156 122.667,231.289   107.733,245.156 115.2,257.956 "/>
  <path transform="matrix(1 0 0 1 -4.6875 6.0065)" stroke-opacity="0" id="imagebot_23" fill="#F3F3F3" d="M122.667,231.289C122.667,231.289 148.267,214.222 150.4,199.289L160,216.356L141.867,255.823L122.667,231.289z"/>
  <path transform="matrix(1 0 0 1 -4.6875 6.0065)" stroke-opacity="0" id="imagebot_24" fill="#F3F3F3" d="M122.667,231.289C122.667,231.289 97.067,214.222 94.934,199.289L85.334,216.356L103.467,255.823L122.667,231.289z"/>
  <path transform="matrix(1 0 0 1 -4.6875 6.0065)" stroke-opacity="0" id="imagebot_25" fill="#F7B64C" d="M94.933,181.156L94.933,199.289C97.066,214.222 122.666,231.289 122.666,231.289S148.266,214.222 150.399,199.289L150.399,181.156L94.933,181.156z"/>
  <path stroke-opacity="0" id="imagebot_26" fill="#FFD15C" d="M 76.3795 142.93300024414063 C 75.3125 147.20000024414063 75.3125 151.46700024414062 75.3125 156.80000024414062 C 75.3125 188.80000024414062 94.5125 215.46700024414062 117.9795 215.46700024414062 S 160.6465 188.80000024414062 160.6465 156.80000024414062 C 160.6465 139.7330002441406 155.3135 123.73300024414063 146.7795 113.06700024414063 C 130.7795 131.20000024414063 107.3125 142.93300024414063 76.3795 142.93300024414063 z"/>
  <polygon transform="matrix(1 0 0 1 -4.6875 6.0065)" stroke-opacity="0" id="imagebot_28" fill="#415A6B" points="161.067,301.689 186.667,266.489 165.333,251.556 186.667,236.623 154.667,205.689    134.4,301.689  "/>
  <polygon transform="matrix(1 0 0 1 -4.6875 6.0065)" stroke-opacity="0" id="imagebot_29" fill="#415A6B" points="84.267,301.689 110.933,301.689 90.667,205.689 59.733,236.623 80,251.556 59.733,266.489     "/>
  <path transform="matrix(1 0 0 1 -4.6875 6.0065)" stroke-opacity="0" id="imagebot_31" fill="#7f7f7f" d="M438.4,160.889C436.267,169.422 430.933,176.889 426.667,175.822C422.4,174.755 419.2,167.289 421.334,157.689C423.467,149.156 428.801,141.689 433.067,142.756C437.333,143.823 440.533,152.356 438.4,160.889z"/>
  <path transform="translate(3.125 -1.5625) matrix(1 0 0 1 -4.6875 6.0065)" stroke-opacity="0" id="imagebot_32" fill="#7f7f7f" d="M340.267,160.889C342.4,169.422 347.734,176.889 352,175.822C356.267,174.755 359.467,167.289 357.333,157.689C355.2,149.156 349.866,141.689 345.6,142.756C340.267,143.823 338.133,152.356 340.267,160.889z"/>
  <ellipse transform="matrix(1 0 0 1 -4.6875 6.0065)" stroke-opacity="0" id="imagebot_34" fill="#415A6B" ry="46.933" rx="41.6" cy="131.023" cx="382.933"/>
  <path transform="matrix(1 0 0 1 -4.6875 6.0065)" stroke-opacity="0" id="imagebot_35" fill="#415A6B" d="M434.133,138.489C429.866,164.089 413.866,185.422 397.866,185.422S373.333,164.089 377.599,138.489C381.866,112.889 397.866,91.556 413.866,91.556S439.467,112.889 434.133,138.489z"/>
  <path transform="matrix(1 0 0 1 -4.6875 6.0065)" stroke-opacity="0" id="imagebot_36" fill="#344A5E" d="M512,301.689L503.467,262.222C500.267,248.355 490.667,236.622 476.8,232.355L426.667,216.355L389.334,231.288L352,216.356L301.867,232.356C288,236.623 278.4,248.356 275.2,262.223L266.667,301.69L512,301.69L512,301.689z"/>
  <polygon transform="matrix(1 0 0 1 -4.6875 6.0065)" stroke-opacity="0" id="imagebot_37" fill="#E8EAE9" points="403.2,301.689 419.2,236.623 355.2,236.623 373.333,301.689 "/>
  <polygon transform="matrix(1 0 0 1 -4.6875 6.0065)" stroke-opacity="0" id="imagebot_38" fill="#F3705A" points="368,301.689 410.667,301.689 396.8,257.956 404.267,245.156 389.333,231.289 374.4,245.156   381.867,257.956 "/>
  <path transform="matrix(1 0 0 1 -4.6875 6.0065)" stroke-opacity="0" id="imagebot_40" fill="#F3F3F3" d="M389.333,231.289C389.333,231.289 414.933,214.222 417.066,199.289L426.666,216.356L408.533,255.823L389.333,231.289z"/>
  <path transform="matrix(1 0 0 1 -4.6875 6.0065)" stroke-opacity="0" id="imagebot_41" fill="#F3F3F3" d="M389.333,231.289C389.333,231.289 363.733,214.222 361.6,199.289L352,216.356L370.133,255.823L389.333,231.289z"/>
  <path transform="matrix(1 0 0 1 -4.6875 6.0065)" stroke-opacity="0" id="imagebot_42" fill="#7f7f7f" d="M361.6,181.156L361.6,199.289C363.733,214.222 389.333,231.289 389.333,231.289S414.933,214.222 417.066,199.289L417.066,181.156L361.6,181.156z"/>
  <path transform="matrix(1 0 0 1 -4.6875 6.0065)" stroke-opacity="0" id="imagebot_43" fill="#7f7f7f" d="M406.4,112.889C389.333,121.422 370.133,126.756 350.933,127.822C348.8,135.289 346.666,142.755 346.666,152.355C346.666,184.355 365.866,211.022 389.333,211.022S432,184.356 432,152.356C432,147.023 432,142.756 430.933,138.489C420.267,131.023 412.8,122.489 406.4,112.889z"/>
  <polygon transform="matrix(1 0 0 1 -4.6875 6.0065)" stroke-opacity="0" id="imagebot_45" fill="#415A6B" points="427.733,301.689 452.267,266.489 432,251.556 452.267,236.623 421.333,205.689    401.067,301.689  "/>
  <polygon transform="matrix(1 0 0 1 -4.6875 6.0065)" stroke-opacity="0" id="imagebot_46" fill="#415A6B" points="350.933,301.689 377.6,301.689 357.333,205.689 325.333,236.623 346.667,251.556    325.333,266.489  "/>
  <rect transform="matrix(1 0 0 1 -4.6875 6.0065)" stroke-opacity="0" id="imagebot_47" fill="#CED6E0" height="94.933" width="73.6" y="206.756" x="218.667"/>
  <polygon transform="matrix(1 0 0 1 -4.6875 6.0065)" stroke-opacity="0" id="imagebot_48" fill="#F05540" points="266.667,231.289 277.333,221.689 256,200.356 234.667,221.689 245.333,231.289 "/>
  <polygon transform="matrix(1 0 0 1 -4.6875 6.0065)" stroke-opacity="0" id="imagebot_49" fill="#F3705A" points="280.533,301.689 266.667,231.289 245.333,231.289 232.533,301.689 "/>
  <path transform="matrix(1 0 0 1 -4.6875 6.0065)" stroke-opacity="0" id="imagebot_51" fill="#609791" d="M404.267,301.689L392.534,254.756C387.201,232.356 370.134,215.289 347.734,209.956L312.534,201.423C297.601,220.623 283.734,259.023 270.934,301.69L404.267,301.69L404.267,301.689z"/>
  <path transform="matrix(1 0 0 1 -4.6875 6.0065)" stroke-opacity="0" id="imagebot_52" fill="#609791" d="M241.067,301.689C227.2,259.022 213.334,220.622 199.467,201.422L164.267,209.955C141.867,215.288 124.8,232.355 119.467,254.755L107.734,301.688L241.067,301.689L241.067,301.689z"/>
  <polygon transform="matrix(1 0 0 1 -4.6875 6.0065)" stroke-opacity="0" id="imagebot_53" fill="#7f3f00" points="222.933,132.089 222.933,175.823 256,200.356 289.067,175.823 289.067,132.089 "/>
  <path stroke-opacity="0" id="imagebot_54" fill="#7f3f00" d="M237.642,8.458C250.142,7.691 209.8625,10.4705 206.017,20.9875C187.959,22.7 187.2375,51.2 187.2375,69.333L187.2375,69.333C187.2375,122.666 218.1705,162.133 255.5045,162.133C285.3715,162.133 310.9715,137.6 319.5045,100.266C323.7715,83.199 323.7715,66.133 318.4375,50.133C310.9705,25.6 291.7705,0 237.642,8.458z"/>
  <ellipse stroke-opacity="0" id="imagebot_57" fill="#7f3f00" ry="11.733" rx="20.266" cy="113.964" cx="312.572" transform="matrix(0.2747 -0.9615 0.9615 0.2747 112.439 389.211)"/>
  <ellipse stroke-opacity="0" id="imagebot_58" fill="#7f3f00" ry="11.733" rx="20.266" cy="114.327" cx="199.484" transform="matrix(0.2747 0.9615 -0.9615 0.2747 249.926 -102.882)"/>
  <polygon transform="matrix(1 0 0 1 -4.6875 6.0065)" stroke-opacity="0" id="imagebot_60" fill="#F3F3F3" points="289.067,175.823 256,200.356 275.2,227.022 300.8,195.022  "/>
  <polygon transform="matrix(1 0 0 1 -4.6875 6.0065)" stroke-opacity="0" id="imagebot_61" fill="#F3F3F3" points="222.933,175.823 256,200.356 236.8,227.022 211.2,195.022  "/>
  <polygon transform="matrix(1 0 0 1 -4.6875 6.0065)" stroke-opacity="0" id="imagebot_63" fill="#477C77" class="active-path" points="292.267,301.689 331.733,248.356 299.733,230.223 337.067,221.689 295.467,186.489    267.733,301.689  "/>
  <polygon transform="matrix(1 0 0 1 -4.6875 6.0065)" stroke-opacity="0" id="imagebot_64" fill="#477C77" class="active-path" points="180.267,248.356 219.733,301.689 244.267,301.689 216.533,186.489 174.933,221.689    212.267,230.223  "/>
 </g>
</svg>